# xmcd
#
# Track frame offsets:
#	150
#	22222
#	39500
#
# Disc length: 845 seconds
#
# Revision: 1
# Processed by: cddbd v1.5PL3 Copyright (c) Steve Scherf et al.
# Submitted via: CDex 1.50Beta5
#
DISCID=20034b03
DTITLE=Suicide Sports Car - "レディーM"を追え!
DYEAR=1900
DGENRE=Rock
TTITLE0="レディーM"を追え!
TTITLE1=レインボー作戦 (instrumental)
TTITLE2=CAFE〜giuliano
EXTD=
EXTT0=
EXTT1=
EXTT2=
PLAYORDER=
